# xmcd CD database file
#
# Track frame offsets:
#	225
#	17970
#	32586
#	50037
#	62744
#	82617
#	98191
#	121371
#	140313
#	159199
#	179825
#	200432
#	217556
#	238466
#	257232
#	271306
#	295938
#	313025
#
# Disc length: 4441 seconds
#
# Revision: 1
# Processed by: cddbd v1.5.1PL2 Copyright (c) Steve Scherf et al.
# Submitted via: CDex 1.60beta1
#
DISCID=04115612
DTITLE=Добрынин Вячеслав - Вы Любите Эти Песни
DYEAR=1994
DGENRE=Pop
TTITLE0=Синий Туман
TTITLE1=Бабушки-Старушки
TTITLE2=Нежная
TTITLE3=Колдовское Озеро
TTITLE4=Не Сыпь Мне Оль На Рану
TTITLE5=Спасатель
TTITLE6=Сумасшедший Дождь
TTITLE7=Была Не Была
TTITLE8=Казино
TTITLE9=Ах, Какая Женщина
TTITLE10=Улыбнись Мне, Моя Отрада
TTITLE11=Любовники
TTITLE12=Стена
TTITLE13=Пиковая Дама
TTITLE14=Капитан Запаса
TTITLE15=Две Свечи
TTITLE16=Где Же Ты Была?
TTITLE17=Не Берите В Голову
EXTD=YEAR: 1994
EXTT0=
EXTT1=
EXTT2=
EXTT3=
EXTT4=
EXTT5=
EXTT6=
EXTT7=
EXTT8=
EXTT9=
EXTT10=
EXTT11=
EXTT12=
EXTT13=
EXTT14=
EXTT15=
EXTT16=
EXTT17=
PLAYORDER=
